<?xml version="1.0" encoding="utf-8" standalone="no"?>
<!DOCTYPE svg PUBLIC "-//W3C//DTD SVG 1.1//EN"
  "http://www.w3.org/Graphics/SVG/1.1/DTD/svg11.dtd">
<!-- Created with matplotlib (https://matplotlib.org/) -->
<svg height="345.6pt" version="1.1" viewBox="0 0 460.8 345.6" width="460.8pt" xmlns="http://www.w3.org/2000/svg" xmlns:xlink="http://www.w3.org/1999/xlink">
 <metadata>
  <rdf:RDF xmlns:cc="http://creativecommons.org/ns#" xmlns:dc="http://purl.org/dc/elements/1.1/" xmlns:rdf="http://www.w3.org/1999/02/22-rdf-syntax-ns#">
   <cc:Work>
    <dc:type rdf:resource="http://purl.org/dc/dcmitype/StillImage"/>
    <dc:date>2020-10-17T15:24:23.298576</dc:date>
    <dc:format>image/svg+xml</dc:format>
    <dc:creator>
     <cc:Agent>
      <dc:title>Matplotlib v3.3.2, https://matplotlib.org/</dc:title>
     </cc:Agent>
    </dc:creator>
   </cc:Work>
  </rdf:RDF>
 </metadata>
 <defs>
  <style type="text/css">*{stroke-linecap:butt;stroke-linejoin:round;}</style>
 </defs>
 <g id="figure_1">
  <g id="patch_1">
   <path d="M 0 345.6 
L 460.8 345.6 
L 460.8 0 
L 0 0 
z
" style="fill:#ffffff;"/>
  </g>
  <g id="axes_1">
   <g id="patch_2">
    <path d="M 48.81 268.35602 
L 450 268.35602 
L 450 25.44 
L 48.81 25.44 
z
" style="fill:#eaeaf2;"/>
   </g>
   <g id="matplotlib.axis_1">
    <g id="xtick_1">
     <g id="line2d_1">
      <path clip-path="url(#pbcbd903474)" d="M 67.045909 268.35602 
L 67.045909 25.44 
" style="fill:none;stroke:#ffffff;stroke-linecap:round;stroke-width:0.8;"/>
     </g>
     <g id="line2d_2"/>
     <g id="text_1">
      <!-- 2020-03-08 -->
      <g style="fill:#262626;" transform="translate(35.940945 313.083659)rotate(-45)scale(0.1 -0.1)">
       <defs>
        <path d="M 50.34375 8.453125 
L 50.34375 0 
L 3.03125 0 
Q 2.9375 3.171875 4.046875 6.109375 
Q 5.859375 10.9375 9.828125 15.625 
Q 13.8125 20.3125 21.34375 26.46875 
Q 33.015625 36.03125 37.109375 41.625 
Q 41.21875 47.21875 41.21875 52.203125 
Q 41.21875 57.421875 37.46875 61 
Q 33.734375 64.59375 27.734375 64.59375 
Q 21.390625 64.59375 17.578125 60.78125 
Q 13.765625 56.984375 13.71875 50.25 
L 4.6875 51.171875 
Q 5.609375 61.28125 11.65625 66.578125 
Q 17.71875 71.875 27.9375 71.875 
Q 38.234375 71.875 44.234375 66.15625 
Q 50.25 60.453125 50.25 52 
Q 50.25 47.703125 48.484375 43.546875 
Q 46.734375 39.40625 42.65625 34.8125 
Q 38.578125 30.21875 29.109375 22.21875 
Q 21.1875 15.578125 18.9375 13.203125 
Q 16.703125 10.84375 15.234375 8.453125 
z
" id="ArialMT-50"/>
        <path d="M 4.15625 35.296875 
Q 4.15625 48 6.765625 55.734375 
Q 9.375 63.484375 14.515625 67.671875 
Q 19.671875 71.875 27.484375 71.875 
Q 33.25 71.875 37.59375 69.546875 
Q 41.9375 67.234375 44.765625 62.859375 
Q 47.609375 58.5 49.21875 52.21875 
Q 50.828125 45.953125 50.828125 35.296875 
Q 50.828125 22.703125 48.234375 14.96875 
Q 45.65625 7.234375 40.5 3 
Q 35.359375 -1.21875 27.484375 -1.21875 
Q 17.140625 -1.21875 11.234375 6.203125 
Q 4.15625 15.140625 4.15625 35.296875 
z
M 13.1875 35.296875 
Q 13.1875 17.671875 17.3125 11.828125 
Q 21.4375 6 27.484375 6 
Q 33.546875 6 37.671875 11.859375 
Q 41.796875 17.71875 41.796875 35.296875 
Q 41.796875 52.984375 37.671875 58.78125 
Q 33.546875 64.59375 27.390625 64.59375 
Q 21.34375 64.59375 17.71875 59.46875 
Q 13.1875 52.9375 13.1875 35.296875 
z
" id="ArialMT-48"/>
        <path d="M 3.171875 21.484375 
L 3.171875 30.328125 
L 30.171875 30.328125 
L 30.171875 21.484375 
z
" id="ArialMT-45"/>
        <path d="M 4.203125 18.890625 
L 12.984375 20.0625 
Q 14.5 12.59375 18.140625 9.296875 
Q 21.78125 6 27 6 
Q 33.203125 6 37.46875 10.296875 
Q 41.75 14.59375 41.75 20.953125 
Q 41.75 27 37.796875 30.921875 
Q 33.84375 34.859375 27.734375 34.859375 
Q 25.25 34.859375 21.53125 33.890625 
L 22.515625 41.609375 
Q 23.390625 41.5 23.921875 41.5 
Q 29.546875 41.5 34.03125 44.421875 
Q 38.53125 47.359375 38.53125 53.46875 
Q 38.53125 58.296875 35.25 61.46875 
Q 31.984375 64.65625 26.8125 64.65625 
Q 21.6875 64.65625 18.265625 61.421875 
Q 14.84375 58.203125 13.875 51.765625 
L 5.078125 53.328125 
Q 6.6875 62.15625 12.390625 67.015625 
Q 18.109375 71.875 26.609375 71.875 
Q 32.46875 71.875 37.390625 69.359375 
Q 42.328125 66.84375 44.9375 62.5 
Q 47.5625 58.15625 47.5625 53.265625 
Q 47.5625 48.640625 45.0625 44.828125 
Q 42.578125 41.015625 37.703125 38.765625 
Q 44.046875 37.3125 47.5625 32.6875 
Q 51.078125 28.078125 51.078125 21.140625 
Q 51.078125 11.765625 44.234375 5.25 
Q 37.40625 -1.265625 26.953125 -1.265625 
Q 17.53125 -1.265625 11.296875 4.34375 
Q 5.078125 9.96875 4.203125 18.890625 
z
" id="ArialMT-51"/>
        <path d="M 17.671875 38.8125 
Q 12.203125 40.828125 9.5625 44.53125 
Q 6.9375 48.25 6.9375 53.421875 
Q 6.9375 61.234375 12.546875 66.546875 
Q 18.171875 71.875 27.484375 71.875 
Q 36.859375 71.875 42.578125 66.421875 
Q 48.296875 60.984375 48.296875 53.171875 
Q 48.296875 48.1875 45.671875 44.5 
Q 43.0625 40.828125 37.75 38.8125 
Q 44.34375 36.671875 47.78125 31.875 
Q 51.21875 27.09375 51.21875 20.453125 
Q 51.21875 11.28125 44.71875 5.03125 
Q 38.234375 -1.21875 27.640625 -1.21875 
Q 17.046875 -1.21875 10.546875 5.046875 
Q 4.046875 11.328125 4.046875 20.703125 
Q 4.046875 27.6875 7.59375 32.390625 
Q 11.140625 37.109375 17.671875 38.8125 
z
M 15.921875 53.71875 
Q 15.921875 48.640625 19.1875 45.40625 
Q 22.46875 42.1875 27.6875 42.1875 
Q 32.765625 42.1875 36.015625 45.375 
Q 39.265625 48.578125 39.265625 53.21875 
Q 39.265625 58.0625 35.90625 61.359375 
Q 32.5625 64.65625 27.59375 64.65625 
Q 22.5625 64.65625 19.234375 61.421875 
Q 15.921875 58.203125 15.921875 53.71875 
z
M 13.09375 20.65625 
Q 13.09375 16.890625 14.875 13.375 
Q 16.65625 9.859375 20.171875 7.921875 
Q 23.6875 6 27.734375 6 
Q 34.03125 6 38.125 10.046875 
Q 42.234375 14.109375 42.234375 20.359375 
Q 42.234375 26.703125 38.015625 30.859375 
Q 33.796875 35.015625 27.4375 35.015625 
Q 21.234375 35.015625 17.15625 30.90625 
Q 13.09375 26.8125 13.09375 20.65625 
z
" id="ArialMT-56"/>
       </defs>
       <use xlink:href="#ArialMT-50"/>
       <use x="55.615234" xlink:href="#ArialMT-48"/>
       <use x="111.230469" xlink:href="#ArialMT-50"/>
       <use x="166.845703" xlink:href="#ArialMT-48"/>
       <use x="222.460938" xlink:href="#ArialMT-45"/>
       <use x="255.761719" xlink:href="#ArialMT-48"/>
       <use x="311.376953" xlink:href="#ArialMT-51"/>
       <use x="366.992188" xlink:href="#ArialMT-45"/>
       <use x="400.292969" xlink:href="#ArialMT-48"/>
       <use x="455.908203" xlink:href="#ArialMT-56"/>
      </g>
     </g>
    </g>
    <g id="xtick_2">
     <g id="line2d_3">
      <path clip-path="url(#pbcbd903474)" d="M 111.446383 268.35602 
L 111.446383 25.44 
" style="fill:none;stroke:#ffffff;stroke-linecap:round;stroke-width:0.8;"/>
     </g>
     <g id="line2d_4"/>
     <g id="text_2">
      <!-- 2020-04-05 -->
      <g style="fill:#262626;" transform="translate(80.341419 313.083659)rotate(-45)scale(0.1 -0.1)">
       <defs>
        <path d="M 32.328125 0 
L 32.328125 17.140625 
L 1.265625 17.140625 
L 1.265625 25.203125 
L 33.9375 71.578125 
L 41.109375 71.578125 
L 41.109375 25.203125 
L 50.78125 25.203125 
L 50.78125 17.140625 
L 41.109375 17.140625 
L 41.109375 0 
z
M 32.328125 25.203125 
L 32.328125 57.46875 
L 9.90625 25.203125 
z
" id="ArialMT-52"/>
        <path d="M 4.15625 18.75 
L 13.375 19.53125 
Q 14.40625 12.796875 18.140625 9.390625 
Q 21.875 6 27.15625 6 
Q 33.5 6 37.890625 10.78125 
Q 42.28125 15.578125 42.28125 23.484375 
Q 42.28125 31 38.0625 35.34375 
Q 33.84375 39.703125 27 39.703125 
Q 22.75 39.703125 19.328125 37.765625 
Q 15.921875 35.84375 13.96875 32.765625 
L 5.71875 33.84375 
L 12.640625 70.609375 
L 48.25 70.609375 
L 48.25 62.203125 
L 19.671875 62.203125 
L 15.828125 42.96875 
Q 22.265625 47.46875 29.34375 47.46875 
Q 38.71875 47.46875 45.15625 40.96875 
Q 51.609375 34.46875 51.609375 24.265625 
Q 51.609375 14.546875 45.953125 7.46875 
Q 39.0625 -1.21875 27.15625 -1.21875 
Q 17.390625 -1.21875 11.203125 4.25 
Q 5.03125 9.71875 4.15625 18.75 
z
" id="ArialMT-53"/>
       </defs>
       <use xlink:href="#ArialMT-50"/>
       <use x="55.615234" xlink:href="#ArialMT-48"/>
       <use x="111.230469" xlink:href="#ArialMT-50"/>
       <use x="166.845703" xlink:href="#ArialMT-48"/>
       <use x="222.460938" xlink:href="#ArialMT-45"/>
       <use x="255.761719" xlink:href="#ArialMT-48"/>
       <use x="311.376953" xlink:href="#ArialMT-52"/>
       <use x="366.992188" xlink:href="#ArialMT-45"/>
       <use x="400.292969" xlink:href="#ArialMT-48"/>
       <use x="455.908203" xlink:href="#ArialMT-53"/>
      </g>
     </g>
    </g>
    <g id="xtick_3">
     <g id="line2d_5">
      <path clip-path="url(#pbcbd903474)" d="M 128.889427 268.35602 
L 128.889427 25.44 
" style="fill:none;stroke:#ffffff;stroke-linecap:round;stroke-width:0.8;"/>
     </g>
     <g id="line2d_6"/>
     <g id="text_3">
      <!-- 2020-04-16 -->
      <g style="fill:#ff0000;" transform="translate(97.784462 313.083659)rotate(-45)scale(0.1 -0.1)">
       <defs>
        <path d="M 37.25 0 
L 28.46875 0 
L 28.46875 56 
Q 25.296875 52.984375 20.140625 49.953125 
Q 14.984375 46.921875 10.890625 45.40625 
L 10.890625 53.90625 
Q 18.265625 57.375 23.78125 62.296875 
Q 29.296875 67.234375 31.59375 71.875 
L 37.25 71.875 
z
" id="ArialMT-49"/>
        <path d="M 49.75 54.046875 
L 41.015625 53.375 
Q 39.84375 58.546875 37.703125 60.890625 
Q 34.125 64.65625 28.90625 64.65625 
Q 24.703125 64.65625 21.53125 62.3125 
Q 17.390625 59.28125 14.984375 53.46875 
Q 12.59375 47.65625 12.5 36.921875 
Q 15.671875 41.75 20.265625 44.09375 
Q 24.859375 46.4375 29.890625 46.4375 
Q 38.671875 46.4375 44.84375 39.96875 
Q 51.03125 33.5 51.03125 23.25 
Q 51.03125 16.5 48.125 10.71875 
Q 45.21875 4.9375 40.140625 1.859375 
Q 35.0625 -1.21875 28.609375 -1.21875 
Q 17.625 -1.21875 10.6875 6.859375 
Q 3.765625 14.9375 3.765625 33.5 
Q 3.765625 54.25 11.421875 63.671875 
Q 18.109375 71.875 29.4375 71.875 
Q 37.890625 71.875 43.28125 67.140625 
Q 48.6875 62.40625 49.75 54.046875 
z
M 13.875 23.1875 
Q 13.875 18.65625 15.796875 14.5 
Q 17.71875 10.359375 21.1875 8.171875 
Q 24.65625 6 28.46875 6 
Q 34.03125 6 38.03125 10.484375 
Q 42.046875 14.984375 42.046875 22.703125 
Q 42.046875 30.125 38.078125 34.390625 
Q 34.125 38.671875 28.125 38.671875 
Q 22.171875 38.671875 18.015625 34.390625 
Q 13.875 30.125 13.875 23.1875 
z
" id="ArialMT-54"/>
       </defs>
       <use xlink:href="#ArialMT-50"/>
       <use x="55.615234" xlink:href="#ArialMT-48"/>
       <use x="111.230469" xlink:href="#ArialMT-50"/>
       <use x="166.845703" xlink:href="#ArialMT-48"/>
       <use x="222.460938" xlink:href="#ArialMT-45"/>
       <use x="255.761719" xlink:href="#ArialMT-48"/>
       <use x="311.376953" xlink:href="#ArialMT-52"/>
       <use x="366.992188" xlink:href="#ArialMT-45"/>
       <use x="400.292969" xlink:href="#ArialMT-49"/>
       <use x="455.908203" xlink:href="#ArialMT-54"/>
      </g>
     </g>
    </g>
    <g id="xtick_4">
     <g id="line2d_7">
      <path clip-path="url(#pbcbd903474)" d="M 146.33247 268.35602 
L 146.33247 25.44 
" style="fill:none;stroke:#ffffff;stroke-linecap:round;stroke-width:0.8;"/>
     </g>
     <g id="line2d_8"/>
     <g id="text_4">
      <!-- 2020-04-27 -->
      <g style="fill:#ff0000;" transform="translate(115.227506 313.083659)rotate(-45)scale(0.1 -0.1)">
       <defs>
        <path d="M 4.734375 62.203125 
L 4.734375 70.65625 
L 51.078125 70.65625 
L 51.078125 63.8125 
Q 44.234375 56.546875 37.515625 44.484375 
Q 30.8125 32.421875 27.15625 19.671875 
Q 24.515625 10.6875 23.78125 0 
L 14.75 0 
Q 14.890625 8.453125 18.0625 20.40625 
Q 21.234375 32.375 27.171875 43.484375 
Q 33.109375 54.59375 39.796875 62.203125 
z
" id="ArialMT-55"/>
       </defs>
       <use xlink:href="#ArialMT-50"/>
       <use x="55.615234" xlink:href="#ArialMT-48"/>
       <use x="111.230469" xlink:href="#ArialMT-50"/>
       <use x="166.845703" xlink:href="#ArialMT-48"/>
       <use x="222.460938" xlink:href="#ArialMT-45"/>
       <use x="255.761719" xlink:href="#ArialMT-48"/>
       <use x="311.376953" xlink:href="#ArialMT-52"/>
       <use x="366.992188" xlink:href="#ArialMT-45"/>
       <use x="400.292969" xlink:href="#ArialMT-50"/>
       <use x="455.908203" xlink:href="#ArialMT-55"/>
      </g>
     </g>
    </g>
    <g id="xtick_5">
     <g id="line2d_9">
      <path clip-path="url(#pbcbd903474)" d="M 162.189783 268.35602 
L 162.189783 25.44 
" style="fill:none;stroke:#ffffff;stroke-linecap:round;stroke-width:0.8;"/>
     </g>
     <g id="line2d_10"/>
     <g id="text_5">
      <!-- 2020-05-07 -->
      <g style="fill:#ff0000;" transform="translate(131.084818 313.083659)rotate(-45)scale(0.1 -0.1)">
       <use xlink:href="#ArialMT-50"/>
       <use x="55.615234" xlink:href="#ArialMT-48"/>
       <use x="111.230469" xlink:href="#ArialMT-50"/>
       <use x="166.845703" xlink:href="#ArialMT-48"/>
       <use x="222.460938" xlink:href="#ArialMT-45"/>
       <use x="255.761719" xlink:href="#ArialMT-48"/>
       <use x="311.376953" xlink:href="#ArialMT-53"/>
       <use x="366.992188" xlink:href="#ArialMT-45"/>
       <use x="400.292969" xlink:href="#ArialMT-48"/>
       <use x="455.908203" xlink:href="#ArialMT-55"/>
      </g>
     </g>
    </g>
    <g id="xtick_6">
     <g id="line2d_11">
      <path clip-path="url(#pbcbd903474)" d="M 179.632826 268.35602 
L 179.632826 25.44 
" style="fill:none;stroke:#ffffff;stroke-linecap:round;stroke-width:0.8;"/>
     </g>
     <g id="line2d_12"/>
     <g id="text_6">
      <!-- 2020-05-18 -->
      <g style="fill:#ff0000;" transform="translate(148.527862 313.083659)rotate(-45)scale(0.1 -0.1)">
       <use xlink:href="#ArialMT-50"/>
       <use x="55.615234" xlink:href="#ArialMT-48"/>
       <use x="111.230469" xlink:href="#ArialMT-50"/>
       <use x="166.845703" xlink:href="#ArialMT-48"/>
       <use x="222.460938" xlink:href="#ArialMT-45"/>
       <use x="255.761719" xlink:href="#ArialMT-48"/>
       <use x="311.376953" xlink:href="#ArialMT-53"/>
       <use x="366.992188" xlink:href="#ArialMT-45"/>
       <use x="400.292969" xlink:href="#ArialMT-49"/>
       <use x="455.908203" xlink:href="#ArialMT-56"/>
      </g>
     </g>
    </g>
    <g id="xtick_7">
     <g id="line2d_13">
      <path clip-path="url(#pbcbd903474)" d="M 197.07587 268.35602 
L 197.07587 25.44 
" style="fill:none;stroke:#ffffff;stroke-linecap:round;stroke-width:0.8;"/>
     </g>
     <g id="line2d_14"/>
     <g id="text_7">
      <!-- 2020-05-29 -->
      <g style="fill:#ff0000;" transform="translate(165.970905 313.083659)rotate(-45)scale(0.1 -0.1)">
       <defs>
        <path d="M 5.46875 16.546875 
L 13.921875 17.328125 
Q 14.984375 11.375 18.015625 8.6875 
Q 21.046875 6 25.78125 6 
Q 29.828125 6 32.875 7.859375 
Q 35.9375 9.71875 37.890625 12.8125 
Q 39.84375 15.921875 41.15625 21.1875 
Q 42.484375 26.46875 42.484375 31.9375 
Q 42.484375 32.515625 42.4375 33.6875 
Q 39.796875 29.5 35.234375 26.875 
Q 30.671875 24.265625 25.34375 24.265625 
Q 16.453125 24.265625 10.296875 30.703125 
Q 4.15625 37.15625 4.15625 47.703125 
Q 4.15625 58.59375 10.578125 65.234375 
Q 17 71.875 26.65625 71.875 
Q 33.640625 71.875 39.421875 68.109375 
Q 45.21875 64.359375 48.21875 57.390625 
Q 51.21875 50.4375 51.21875 37.25 
Q 51.21875 23.53125 48.234375 15.40625 
Q 45.265625 7.28125 39.375 3.03125 
Q 33.5 -1.21875 25.59375 -1.21875 
Q 17.1875 -1.21875 11.859375 3.4375 
Q 6.546875 8.109375 5.46875 16.546875 
z
M 41.453125 48.140625 
Q 41.453125 55.71875 37.421875 60.15625 
Q 33.40625 64.59375 27.734375 64.59375 
Q 21.875 64.59375 17.53125 59.8125 
Q 13.1875 55.03125 13.1875 47.40625 
Q 13.1875 40.578125 17.3125 36.296875 
Q 21.4375 32.03125 27.484375 32.03125 
Q 33.59375 32.03125 37.515625 36.296875 
Q 41.453125 40.578125 41.453125 48.140625 
z
" id="ArialMT-57"/>
       </defs>
       <use xlink:href="#ArialMT-50"/>
       <use x="55.615234" xlink:href="#ArialMT-48"/>
       <use x="111.230469" xlink:href="#ArialMT-50"/>
       <use x="166.845703" xlink:href="#ArialMT-48"/>
       <use x="222.460938" xlink:href="#ArialMT-45"/>
       <use x="255.761719" xlink:href="#ArialMT-48"/>
       <use x="311.376953" xlink:href="#ArialMT-53"/>
       <use x="366.992188" xlink:href="#ArialMT-45"/>
       <use x="400.292969" xlink:href="#ArialMT-50"/>
       <use x="455.908203" xlink:href="#ArialMT-57"/>
      </g>
     </g>
    </g>
    <g id="xtick_8">
     <g id="line2d_15">
      <path clip-path="url(#pbcbd903474)" d="M 212.933182 268.35602 
L 212.933182 25.44 
" style="fill:none;stroke:#ffffff;stroke-linecap:round;stroke-width:0.8;"/>
     </g>
     <g id="line2d_16"/>
     <g id="text_8">
      <!-- 2020-06-08 -->
      <g style="fill:#ff0000;" transform="translate(181.828217 313.083659)rotate(-45)scale(0.1 -0.1)">
       <use xlink:href="#ArialMT-50"/>
       <use x="55.615234" xlink:href="#ArialMT-48"/>
       <use x="111.230469" xlink:href="#ArialMT-50"/>
       <use x="166.845703" xlink:href="#ArialMT-48"/>
       <use x="222.460938" xlink:href="#ArialMT-45"/>
       <use x="255.761719" xlink:href="#ArialMT-48"/>
       <use x="311.376953" xlink:href="#ArialMT-54"/>
       <use x="366.992188" xlink:href="#ArialMT-45"/>
       <use x="400.292969" xlink:href="#ArialMT-48"/>
       <use x="455.908203" xlink:href="#ArialMT-56"/>
      </g>
     </g>
    </g>
    <g id="xtick_9">
     <g id="line2d_17">
      <path clip-path="url(#pbcbd903474)" d="M 230.376225 268.35602 
L 230.376225 25.44 
" style="fill:none;stroke:#ffffff;stroke-linecap:round;stroke-width:0.8;"/>
     </g>
     <g id="line2d_18"/>
     <g id="text_9">
      <!-- 2020-06-19 -->
      <g style="fill:#ff0000;" transform="translate(199.271261 313.083659)rotate(-45)scale(0.1 -0.1)">
       <use xlink:href="#ArialMT-50"/>
       <use x="55.615234" xlink:href="#ArialMT-48"/>
       <use x="111.230469" xlink:href="#ArialMT-50"/>
       <use x="166.845703" xlink:href="#ArialMT-48"/>
       <use x="222.460938" xlink:href="#ArialMT-45"/>
       <use x="255.761719" xlink:href="#ArialMT-48"/>
       <use x="311.376953" xlink:href="#ArialMT-54"/>
       <use x="366.992188" xlink:href="#ArialMT-45"/>
       <use x="400.292969" xlink:href="#ArialMT-49"/>
       <use x="455.908203" xlink:href="#ArialMT-57"/>
      </g>
     </g>
    </g>
    <g id="xtick_10">
     <g id="line2d_19">
      <path clip-path="url(#pbcbd903474)" d="M 247.819269 268.35602 
L 247.819269 25.44 
" style="fill:none;stroke:#ffffff;stroke-linecap:round;stroke-width:0.8;"/>
     </g>
     <g id="line2d_20"/>
     <g id="text_10">
      <!-- 2020-06-30 -->
      <g style="fill:#ff0000;" transform="translate(216.714304 313.083659)rotate(-45)scale(0.1 -0.1)">
       <use xlink:href="#ArialMT-50"/>
       <use x="55.615234" xlink:href="#ArialMT-48"/>
       <use x="111.230469" xlink:href="#ArialMT-50"/>
       <use x="166.845703" xlink:href="#ArialMT-48"/>
       <use x="222.460938" xlink:href="#ArialMT-45"/>
       <use x="255.761719" xlink:href="#ArialMT-48"/>
       <use x="311.376953" xlink:href="#ArialMT-54"/>
       <use x="366.992188" xlink:href="#ArialMT-45"/>
       <use x="400.292969" xlink:href="#ArialMT-51"/>
       <use x="455.908203" xlink:href="#ArialMT-48"/>
      </g>
     </g>
    </g>
    <g id="xtick_11">
     <g id="line2d_21">
      <path clip-path="url(#pbcbd903474)" d="M 263.676581 268.35602 
L 263.676581 25.44 
" style="fill:none;stroke:#ffffff;stroke-linecap:round;stroke-width:0.8;"/>
     </g>
     <g id="line2d_22"/>
     <g id="text_11">
      <!-- 2020-07-10 -->
      <g style="fill:#ff0000;" transform="translate(232.571617 313.083659)rotate(-45)scale(0.1 -0.1)">
       <use xlink:href="#ArialMT-50"/>
       <use x="55.615234" xlink:href="#ArialMT-48"/>
       <use x="111.230469" xlink:href="#ArialMT-50"/>
       <use x="166.845703" xlink:href="#ArialMT-48"/>
       <use x="222.460938" xlink:href="#ArialMT-45"/>
       <use x="255.761719" xlink:href="#ArialMT-48"/>
       <use x="311.376953" xlink:href="#ArialMT-55"/>
       <use x="366.992188" xlink:href="#ArialMT-45"/>
       <use x="400.292969" xlink:href="#ArialMT-49"/>
       <use x="455.908203" xlink:href="#ArialMT-48"/>
      </g>
     </g>
    </g>
    <g id="xtick_12">
     <g id="line2d_23">
      <path clip-path="url(#pbcbd903474)" d="M 281.119625 268.35602 
L 281.119625 25.44 
" style="fill:none;stroke:#ffffff;stroke-linecap:round;stroke-width:0.8;"/>
     </g>
     <g id="line2d_24"/>
     <g id="text_12">
      <!-- 2020-07-21 -->
      <g style="fill:#ff0000;" transform="translate(250.01466 313.083659)rotate(-45)scale(0.1 -0.1)">
       <use xlink:href="#ArialMT-50"/>
       <use x="55.615234" xlink:href="#ArialMT-48"/>
       <use x="111.230469" xlink:href="#ArialMT-50"/>
       <use x="166.845703" xlink:href="#ArialMT-48"/>
       <use x="222.460938" xlink:href="#ArialMT-45"/>
       <use x="255.761719" xlink:href="#ArialMT-48"/>
       <use x="311.376953" xlink:href="#ArialMT-55"/>
       <use x="366.992188" xlink:href="#ArialMT-45"/>
       <use x="400.292969" xlink:href="#ArialMT-50"/>
       <use x="455.908203" xlink:href="#ArialMT-49"/>
      </g>
     </g>
    </g>
    <g id="xtick_13">
     <g id="line2d_25">
      <path clip-path="url(#pbcbd903474)" d="M 296.976937 268.35602 
L 296.976937 25.44 
" style="fill:none;stroke:#ffffff;stroke-linecap:round;stroke-width:0.8;"/>
     </g>
     <g id="line2d_26"/>
     <g id="text_13">
      <!-- 2020-07-31 -->
      <g style="fill:#ff0000;" transform="translate(265.871972 313.083659)rotate(-45)scale(0.1 -0.1)">
       <use xlink:href="#ArialMT-50"/>
       <use x="55.615234" xlink:href="#ArialMT-48"/>
       <use x="111.230469" xlink:href="#ArialMT-50"/>
       <use x="166.845703" xlink:href="#ArialMT-48"/>
       <use x="222.460938" xlink:href="#ArialMT-45"/>
       <use x="255.761719" xlink:href="#ArialMT-48"/>
       <use x="311.376953" xlink:href="#ArialMT-55"/>
       <use x="366.992188" xlink:href="#ArialMT-45"/>
       <use x="400.292969" xlink:href="#ArialMT-51"/>
       <use x="455.908203" xlink:href="#ArialMT-49"/>
      </g>
     </g>
    </g>
    <g id="xtick_14">
     <g id="line2d_27">
      <path clip-path="url(#pbcbd903474)" d="M 314.41998 268.35602 
L 314.41998 25.44 
" style="fill:none;stroke:#ffffff;stroke-linecap:round;stroke-width:0.8;"/>
     </g>
     <g id="line2d_28"/>
     <g id="text_14">
      <!-- 2020-08-11 -->
      <g style="fill:#ff0000;" transform="translate(283.836507 312.562168)rotate(-45)scale(0.1 -0.1)">
       <use xlink:href="#ArialMT-50"/>
       <use x="55.615234" xlink:href="#ArialMT-48"/>
       <use x="111.230469" xlink:href="#ArialMT-50"/>
       <use x="166.845703" xlink:href="#ArialMT-48"/>
       <use x="222.460938" xlink:href="#ArialMT-45"/>
       <use x="255.761719" xlink:href="#ArialMT-48"/>
       <use x="311.376953" xlink:href="#ArialMT-56"/>
       <use x="366.992188" xlink:href="#ArialMT-45"/>
       <use x="400.292969" xlink:href="#ArialMT-49"/>
       <use x="448.533203" xlink:href="#ArialMT-49"/>
      </g>
     </g>
    </g>
    <g id="xtick_15">
     <g id="line2d_29">
      <path clip-path="url(#pbcbd903474)" d="M 331.863024 268.35602 
L 331.863024 25.44 
" style="fill:none;stroke:#ffffff;stroke-linecap:round;stroke-width:0.8;"/>
     </g>
     <g id="line2d_30"/>
     <g id="text_15">
      <!-- 2020-08-22 -->
      <g style="fill:#ff0000;" transform="translate(300.758059 313.083659)rotate(-45)scale(0.1 -0.1)">
       <use xlink:href="#ArialMT-50"/>
       <use x="55.615234" xlink:href="#ArialMT-48"/>
       <use x="111.230469" xlink:href="#ArialMT-50"/>
       <use x="166.845703" xlink:href="#ArialMT-48"/>
       <use x="222.460938" xlink:href="#ArialMT-45"/>
       <use x="255.761719" xlink:href="#ArialMT-48"/>
       <use x="311.376953" xlink:href="#ArialMT-56"/>
       <use x="366.992188" xlink:href="#ArialMT-45"/>
       <use x="400.292969" xlink:href="#ArialMT-50"/>
       <use x="455.908203" xlink:href="#ArialMT-50"/>
      </g>
     </g>
    </g>
    <g id="xtick_16">
     <g id="line2d_31">
      <path clip-path="url(#pbcbd903474)" d="M 347.720336 268.35602 
L 347.720336 25.44 
" style="fill:none;stroke:#ffffff;stroke-linecap:round;stroke-width:0.8;"/>
     </g>
     <g id="line2d_32"/>
     <g id="text_16">
      <!-- 2020-09-01 -->
      <g style="fill:#ff0000;" transform="translate(316.615372 313.083659)rotate(-45)scale(0.1 -0.1)">
       <use xlink:href="#ArialMT-50"/>
       <use x="55.615234" xlink:href="#ArialMT-48"/>
       <use x="111.230469" xlink:href="#ArialMT-50"/>
       <use x="166.845703" xlink:href="#ArialMT-48"/>
       <use x="222.460938" xlink:href="#ArialMT-45"/>
       <use x="255.761719" xlink:href="#ArialMT-48"/>
       <use x="311.376953" xlink:href="#ArialMT-57"/>
       <use x="366.992188" xlink:href="#ArialMT-45"/>
       <use x="400.292969" xlink:href="#ArialMT-48"/>
       <use x="455.908203" xlink:href="#ArialMT-49"/>
      </g>
     </g>
    </g>
    <g id="xtick_17">
     <g id="line2d_33">
      <path clip-path="url(#pbcbd903474)" d="M 365.163379 268.35602 
L 365.163379 25.44 
" style="fill:none;stroke:#ffffff;stroke-linecap:round;stroke-width:0.8;"/>
     </g>
     <g id="line2d_34"/>
     <g id="text_17">
      <!-- 2020-09-12 -->
      <g style="fill:#ff0000;" transform="translate(334.058415 313.083659)rotate(-45)scale(0.1 -0.1)">
       <use xlink:href="#ArialMT-50"/>
       <use x="55.615234" xlink:href="#ArialMT-48"/>
       <use x="111.230469" xlink:href="#ArialMT-50"/>
       <use x="166.845703" xlink:href="#ArialMT-48"/>
       <use x="222.460938" xlink:href="#ArialMT-45"/>
       <use x="255.761719" xlink:href="#ArialMT-48"/>
       <use x="311.376953" xlink:href="#ArialMT-57"/>
       <use x="366.992188" xlink:href="#ArialMT-45"/>
       <use x="400.292969" xlink:href="#ArialMT-49"/>
       <use x="455.908203" xlink:href="#ArialMT-50"/>
      </g>
     </g>
    </g>
    <g id="xtick_18">
     <g id="line2d_35">
      <path clip-path="url(#pbcbd903474)" d="M 382.606423 268.35602 
L 382.606423 25.44 
" style="fill:none;stroke:#ffffff;stroke-linecap:round;stroke-width:0.8;"/>
     </g>
     <g id="line2d_36"/>
     <g id="text_18">
      <!-- 2020-09-23 -->
      <g style="fill:#ff0000;" transform="translate(351.501459 313.083659)rotate(-45)scale(0.1 -0.1)">
       <use xlink:href="#ArialMT-50"/>
       <use x="55.615234" xlink:href="#ArialMT-48"/>
       <use x="111.230469" xlink:href="#ArialMT-50"/>
       <use x="166.845703" xlink:href="#ArialMT-48"/>
       <use x="222.460938" xlink:href="#ArialMT-45"/>
       <use x="255.761719" xlink:href="#ArialMT-48"/>
       <use x="311.376953" xlink:href="#ArialMT-57"/>
       <use x="366.992188" xlink:href="#ArialMT-45"/>
       <use x="400.292969" xlink:href="#ArialMT-50"/>
       <use x="455.908203" xlink:href="#ArialMT-51"/>
      </g>
     </g>
    </g>
    <g id="xtick_19">
     <g id="line2d_37">
      <path clip-path="url(#pbcbd903474)" d="M 398.463735 268.35602 
L 398.463735 25.44 
" style="fill:none;stroke:#ffffff;stroke-linecap:round;stroke-width:0.8;"/>
     </g>
     <g id="line2d_38"/>
     <g id="text_19">
      <!-- 2020-10-03 -->
      <g style="fill:#ff0000;" transform="translate(367.358771 313.083659)rotate(-45)scale(0.1 -0.1)">
       <use xlink:href="#ArialMT-50"/>
       <use x="55.615234" xlink:href="#ArialMT-48"/>
       <use x="111.230469" xlink:href="#ArialMT-50"/>
       <use x="166.845703" xlink:href="#ArialMT-48"/>
       <use x="222.460938" xlink:href="#ArialMT-45"/>
       <use x="255.761719" xlink:href="#ArialMT-49"/>
       <use x="311.376953" xlink:href="#ArialMT-48"/>
       <use x="366.992188" xlink:href="#ArialMT-45"/>
       <use x="400.292969" xlink:href="#ArialMT-48"/>
       <use x="455.908203" xlink:href="#ArialMT-51"/>
      </g>
     </g>
    </g>
    <g id="xtick_20">
     <g id="line2d_39">
      <path clip-path="url(#pbcbd903474)" d="M 415.906779 268.35602 
L 415.906779 25.44 
" style="fill:none;stroke:#ffffff;stroke-linecap:round;stroke-width:0.8;"/>
     </g>
     <g id="line2d_40"/>
     <g id="text_20">
      <!-- 2020-10-14 -->
      <g style="fill:#ff0000;" transform="translate(384.801814 313.083659)rotate(-45)scale(0.1 -0.1)">
       <use xlink:href="#ArialMT-50"/>
       <use x="55.615234" xlink:href="#ArialMT-48"/>
       <use x="111.230469" xlink:href="#ArialMT-50"/>
       <use x="166.845703" xlink:href="#ArialMT-48"/>
       <use x="222.460938" xlink:href="#ArialMT-45"/>
       <use x="255.761719" xlink:href="#ArialMT-49"/>
       <use x="311.376953" xlink:href="#ArialMT-48"/>
       <use x="366.992188" xlink:href="#ArialMT-45"/>
       <use x="400.292969" xlink:href="#ArialMT-49"/>
       <use x="455.908203" xlink:href="#ArialMT-52"/>
      </g>
     </g>
    </g>
    <g id="xtick_21">
     <g id="line2d_41">
      <path clip-path="url(#pbcbd903474)" d="M 431.764091 268.35602 
L 431.764091 25.44 
" style="fill:none;stroke:#ffffff;stroke-linecap:round;stroke-width:0.8;"/>
     </g>
     <g id="line2d_42"/>
     <g id="text_21">
      <!-- 2020-10-24 -->
      <g style="fill:#ff0000;" transform="translate(400.659127 313.083659)rotate(-45)scale(0.1 -0.1)">
       <use xlink:href="#ArialMT-50"/>
       <use x="55.615234" xlink:href="#ArialMT-48"/>
       <use x="111.230469" xlink:href="#ArialMT-50"/>
       <use x="166.845703" xlink:href="#ArialMT-48"/>
       <use x="222.460938" xlink:href="#ArialMT-45"/>
       <use x="255.761719" xlink:href="#ArialMT-49"/>
       <use x="311.376953" xlink:href="#ArialMT-48"/>
       <use x="366.992188" xlink:href="#ArialMT-45"/>
       <use x="400.292969" xlink:href="#ArialMT-50"/>
       <use x="455.908203" xlink:href="#ArialMT-52"/>
      </g>
     </g>
    </g>
    <g id="text_22">
     <!-- Data -->
     <g style="fill:#262626;" transform="translate(231.451406 330.657315)scale(0.17 -0.17)">
      <defs>
       <path d="M 7.71875 0 
L 7.71875 71.578125 
L 32.375 71.578125 
Q 40.71875 71.578125 45.125 70.5625 
Q 51.265625 69.140625 55.609375 65.4375 
Q 61.28125 60.640625 64.078125 53.1875 
Q 66.890625 45.75 66.890625 36.1875 
Q 66.890625 28.03125 64.984375 21.734375 
Q 63.09375 15.4375 60.109375 11.296875 
Q 57.125 7.171875 53.578125 4.796875 
Q 50.046875 2.4375 45.046875 1.21875 
Q 40.046875 0 33.546875 0 
z
M 17.1875 8.453125 
L 32.46875 8.453125 
Q 39.546875 8.453125 43.578125 9.765625 
Q 47.609375 11.078125 50 13.484375 
Q 53.375 16.84375 55.25 22.53125 
Q 57.125 28.21875 57.125 36.328125 
Q 57.125 47.5625 53.4375 53.59375 
Q 49.75 59.625 44.484375 61.671875 
Q 40.671875 63.140625 32.234375 63.140625 
L 17.1875 63.140625 
z
" id="ArialMT-68"/>
       <path d="M 40.4375 6.390625 
Q 35.546875 2.25 31.03125 0.53125 
Q 26.515625 -1.171875 21.34375 -1.171875 
Q 12.796875 -1.171875 8.203125 3 
Q 3.609375 7.171875 3.609375 13.671875 
Q 3.609375 17.484375 5.34375 20.625 
Q 7.078125 23.78125 9.890625 25.6875 
Q 12.703125 27.59375 16.21875 28.5625 
Q 18.796875 29.25 24.03125 29.890625 
Q 34.671875 31.15625 39.703125 32.90625 
Q 39.75 34.71875 39.75 35.203125 
Q 39.75 40.578125 37.25 42.78125 
Q 33.890625 45.75 27.25 45.75 
Q 21.046875 45.75 18.09375 43.578125 
Q 15.140625 41.40625 13.71875 35.890625 
L 5.125 37.0625 
Q 6.296875 42.578125 8.984375 45.96875 
Q 11.671875 49.359375 16.75 51.1875 
Q 21.828125 53.03125 28.515625 53.03125 
Q 35.15625 53.03125 39.296875 51.46875 
Q 43.453125 49.90625 45.40625 47.53125 
Q 47.359375 45.171875 48.140625 41.546875 
Q 48.578125 39.3125 48.578125 33.453125 
L 48.578125 21.734375 
Q 48.578125 9.46875 49.140625 6.21875 
Q 49.703125 2.984375 51.375 0 
L 42.1875 0 
Q 40.828125 2.734375 40.4375 6.390625 
z
M 39.703125 26.03125 
Q 34.90625 24.078125 25.34375 22.703125 
Q 19.921875 21.921875 17.671875 20.9375 
Q 15.4375 19.96875 14.203125 18.09375 
Q 12.984375 16.21875 12.984375 13.921875 
Q 12.984375 10.40625 15.640625 8.0625 
Q 18.3125 5.71875 23.4375 5.71875 
Q 28.515625 5.71875 32.46875 7.9375 
Q 36.421875 10.15625 38.28125 14.015625 
Q 39.703125 17 39.703125 22.796875 
z
" id="ArialMT-97"/>
       <path d="M 25.78125 7.859375 
L 27.046875 0.09375 
Q 23.34375 -0.6875 20.40625 -0.6875 
Q 15.625 -0.6875 12.984375 0.828125 
Q 10.359375 2.34375 9.28125 4.8125 
Q 8.203125 7.28125 8.203125 15.1875 
L 8.203125 45.015625 
L 1.765625 45.015625 
L 1.765625 51.859375 
L 8.203125 51.859375 
L 8.203125 64.703125 
L 16.9375 69.96875 
L 16.9375 51.859375 
L 25.78125 51.859375 
L 25.78125 45.015625 
L 16.9375 45.015625 
L 16.9375 14.703125 
Q 16.9375 10.9375 17.40625 9.859375 
Q 17.875 8.796875 18.921875 8.15625 
Q 19.96875 7.515625 21.921875 7.515625 
Q 23.390625 7.515625 25.78125 7.859375 
z
" id="ArialMT-116"/>
      </defs>
      <use xlink:href="#ArialMT-68"/>
      <use x="72.216797" xlink:href="#ArialMT-97"/>
      <use x="127.832031" xlink:href="#ArialMT-116"/>
      <use x="155.615234" xlink:href="#ArialMT-97"/>
     </g>
    </g>
   </g>
   <g id="matplotlib.axis_2">
    <g id="ytick_1">
     <g id="line2d_43">
      <path clip-path="url(#pbcbd903474)" d="M 48.81 257.314396 
L 450 257.314396 
" style="fill:none;stroke:#ffffff;stroke-linecap:round;stroke-width:0.8;"/>
     </g>
     <g id="line2d_44"/>
     <g id="text_23">
      <!-- 0.0 -->
      <g style="fill:#262626;" transform="translate(31.41 260.893302)scale(0.1 -0.1)">
       <defs>
        <path d="M 9.078125 0 
L 9.078125 10.015625 
L 19.09375 10.015625 
L 19.09375 0 
z
" id="ArialMT-46"/>
       </defs>
       <use xlink:href="#ArialMT-48"/>
       <use x="55.615234" xlink:href="#ArialMT-46"/>
       <use x="83.398438" xlink:href="#ArialMT-48"/>
      </g>
     </g>
    </g>
    <g id="ytick_2">
     <g id="line2d_45">
      <path clip-path="url(#pbcbd903474)" d="M 48.81 228.706449 
L 450 228.706449 
" style="fill:none;stroke:#ffffff;stroke-linecap:round;stroke-width:0.8;"/>
     </g>
     <g id="line2d_46"/>
     <g id="text_24">
      <!-- 0.2 -->
      <g style="fill:#262626;" transform="translate(31.41 232.285355)scale(0.1 -0.1)">
       <use xlink:href="#ArialMT-48"/>
       <use x="55.615234" xlink:href="#ArialMT-46"/>
       <use x="83.398438" xlink:href="#ArialMT-50"/>
      </g>
     </g>
    </g>
    <g id="ytick_3">
     <g id="line2d_47">
      <path clip-path="url(#pbcbd903474)" d="M 48.81 200.098502 
L 450 200.098502 
" style="fill:none;stroke:#ffffff;stroke-linecap:round;stroke-width:0.8;"/>
     </g>
     <g id="line2d_48"/>
     <g id="text_25">
      <!-- 0.4 -->
      <g style="fill:#262626;" transform="translate(31.41 203.677408)scale(0.1 -0.1)">
       <use xlink:href="#ArialMT-48"/>
       <use x="55.615234" xlink:href="#ArialMT-46"/>
       <use x="83.398438" xlink:href="#ArialMT-52"/>
      </g>
     </g>
    </g>
    <g id="ytick_4">
     <g id="line2d_49">
      <path clip-path="url(#pbcbd903474)" d="M 48.81 171.490555 
L 450 171.490555 
" style="fill:none;stroke:#ffffff;stroke-linecap:round;stroke-width:0.8;"/>
     </g>
     <g id="line2d_50"/>
     <g id="text_26">
      <!-- 0.6 -->
      <g style="fill:#262626;" transform="translate(31.41 175.069461)scale(0.1 -0.1)">
       <use xlink:href="#ArialMT-48"/>
       <use x="55.615234" xlink:href="#ArialMT-46"/>
       <use x="83.398438" xlink:href="#ArialMT-54"/>
      </g>
     </g>
    </g>
    <g id="ytick_5">
     <g id="line2d_51">
      <path clip-path="url(#pbcbd903474)" d="M 48.81 142.882608 
L 450 142.882608 
" style="fill:none;stroke:#ffffff;stroke-linecap:round;stroke-width:0.8;"/>
     </g>
     <g id="line2d_52"/>
     <g id="text_27">
      <!-- 0.8 -->
      <g style="fill:#262626;" transform="translate(31.41 146.461514)scale(0.1 -0.1)">
       <use xlink:href="#ArialMT-48"/>
       <use x="55.615234" xlink:href="#ArialMT-46"/>
       <use x="83.398438" xlink:href="#ArialMT-56"/>
      </g>
     </g>
    </g>
    <g id="ytick_6">
     <g id="line2d_53">
      <path clip-path="url(#pbcbd903474)" d="M 48.81 114.274661 
L 450 114.274661 
" style="fill:none;stroke:#ffffff;stroke-linecap:round;stroke-width:0.8;"/>
     </g>
     <g id="line2d_54"/>
     <g id="text_28">
      <!-- 1.0 -->
      <g style="fill:#262626;" transform="translate(31.41 117.853567)scale(0.1 -0.1)">
       <use xlink:href="#ArialMT-49"/>
       <use x="55.615234" xlink:href="#ArialMT-46"/>
       <use x="83.398438" xlink:href="#ArialMT-48"/>
      </g>
     </g>
    </g>
    <g id="ytick_7">
     <g id="line2d_55">
      <path clip-path="url(#pbcbd903474)" d="M 48.81 85.666714 
L 450 85.666714 
" style="fill:none;stroke:#ffffff;stroke-linecap:round;stroke-width:0.8;"/>
     </g>
     <g id="line2d_56"/>
     <g id="text_29">
      <!-- 1.2 -->
      <g style="fill:#262626;" transform="translate(31.41 89.24562)scale(0.1 -0.1)">
       <use xlink:href="#ArialMT-49"/>
       <use x="55.615234" xlink:href="#ArialMT-46"/>
       <use x="83.398438" xlink:href="#ArialMT-50"/>
      </g>
     </g>
    </g>
    <g id="ytick_8">
     <g id="line2d_57">
      <path clip-path="url(#pbcbd903474)" d="M 48.81 57.058767 
L 450 57.058767 
" style="fill:none;stroke:#ffffff;stroke-linecap:round;stroke-width:0.8;"/>
     </g>
     <g id="line2d_58"/>
     <g id="text_30">
      <!-- 1.4 -->
      <g style="fill:#262626;" transform="translate(31.41 60.637673)scale(0.1 -0.1)">
       <use xlink:href="#ArialMT-49"/>
       <use x="55.615234" xlink:href="#ArialMT-46"/>
       <use x="83.398438" xlink:href="#ArialMT-52"/>
      </g>
     </g>
    </g>
    <g id="ytick_9">
     <g id="line2d_59">
      <path clip-path="url(#pbcbd903474)" d="M 48.81 28.45082 
L 450 28.45082 
" style="fill:none;stroke:#ffffff;stroke-linecap:round;stroke-width:0.8;"/>
     </g>
     <g id="line2d_60"/>
     <g id="text_31">
      <!-- 1.6 -->
      <g style="fill:#262626;" transform="translate(31.41 32.029726)scale(0.1 -0.1)">
       <use xlink:href="#ArialMT-49"/>
       <use x="55.615234" xlink:href="#ArialMT-46"/>
       <use x="83.398438" xlink:href="#ArialMT-54"/>
      </g>
     </g>
    </g>
    <g id="text_32">
     <!-- Casos Reportados -->
     <g style="fill:#262626;" transform="translate(24.03125 217.292619)rotate(-90)scale(0.17 -0.17)">
      <defs>
       <path d="M 58.796875 25.09375 
L 68.265625 22.703125 
Q 65.28125 11.03125 57.546875 4.90625 
Q 49.8125 -1.21875 38.625 -1.21875 
Q 27.046875 -1.21875 19.796875 3.484375 
Q 12.546875 8.203125 8.765625 17.140625 
Q 4.984375 26.078125 4.984375 36.328125 
Q 4.984375 47.515625 9.25 55.828125 
Q 13.53125 64.15625 21.40625 68.46875 
Q 29.296875 72.796875 38.765625 72.796875 
Q 49.515625 72.796875 56.828125 67.328125 
Q 64.15625 61.859375 67.046875 51.953125 
L 57.71875 49.75 
Q 55.21875 57.5625 50.484375 61.125 
Q 45.75 64.703125 38.578125 64.703125 
Q 30.328125 64.703125 24.78125 60.734375 
Q 19.234375 56.78125 16.984375 50.109375 
Q 14.75 43.453125 14.75 36.375 
Q 14.75 27.25 17.40625 20.4375 
Q 20.0625 13.625 25.671875 10.25 
Q 31.296875 6.890625 37.84375 6.890625 
Q 45.796875 6.890625 51.3125 11.46875 
Q 56.84375 16.0625 58.796875 25.09375 
z
" id="ArialMT-67"/>
       <path d="M 3.078125 15.484375 
L 11.765625 16.84375 
Q 12.5 11.625 15.84375 8.84375 
Q 19.1875 6.0625 25.203125 6.0625 
Q 31.25 6.0625 34.171875 8.515625 
Q 37.109375 10.984375 37.109375 14.3125 
Q 37.109375 17.28125 34.515625 19 
Q 32.71875 20.171875 25.53125 21.96875 
Q 15.875 24.421875 12.140625 26.203125 
Q 8.40625 27.984375 6.46875 31.125 
Q 4.546875 34.28125 4.546875 38.09375 
Q 4.546875 41.546875 6.125 44.5 
Q 7.71875 47.46875 10.453125 49.421875 
Q 12.5 50.921875 16.03125 51.96875 
Q 19.578125 53.03125 23.640625 53.03125 
Q 29.734375 53.03125 34.34375 51.265625 
Q 38.96875 49.515625 41.15625 46.5 
Q 43.359375 43.5 44.1875 38.484375 
L 35.59375 37.3125 
Q 35.015625 41.3125 32.203125 43.546875 
Q 29.390625 45.796875 24.265625 45.796875 
Q 18.21875 45.796875 15.625 43.796875 
Q 13.03125 41.796875 13.03125 39.109375 
Q 13.03125 37.40625 14.109375 36.03125 
Q 15.1875 34.625 17.484375 33.6875 
Q 18.796875 33.203125 25.25 31.453125 
Q 34.578125 28.953125 38.25 27.359375 
Q 41.9375 25.78125 44.03125 22.75 
Q 46.140625 19.734375 46.140625 15.234375 
Q 46.140625 10.84375 43.578125 6.953125 
Q 41.015625 3.078125 36.171875 0.953125 
Q 31.34375 -1.171875 25.25 -1.171875 
Q 15.140625 -1.171875 9.84375 3.03125 
Q 4.546875 7.234375 3.078125 15.484375 
z
" id="ArialMT-115"/>
       <path d="M 3.328125 25.921875 
Q 3.328125 40.328125 11.328125 47.265625 
Q 18.015625 53.03125 27.640625 53.03125 
Q 38.328125 53.03125 45.109375 46.015625 
Q 51.90625 39.015625 51.90625 26.65625 
Q 51.90625 16.65625 48.90625 10.90625 
Q 45.90625 5.171875 40.15625 2 
Q 34.421875 -1.171875 27.640625 -1.171875 
Q 16.75 -1.171875 10.03125 5.8125 
Q 3.328125 12.796875 3.328125 25.921875 
z
M 12.359375 25.921875 
Q 12.359375 15.96875 16.703125 11.015625 
Q 21.046875 6.0625 27.640625 6.0625 
Q 34.1875 6.0625 38.53125 11.03125 
Q 42.875 16.015625 42.875 26.21875 
Q 42.875 35.84375 38.5 40.796875 
Q 34.125 45.75 27.640625 45.75 
Q 21.046875 45.75 16.703125 40.8125 
Q 12.359375 35.890625 12.359375 25.921875 
z
" id="ArialMT-111"/>
       <path id="ArialMT-32"/>
       <path d="M 7.859375 0 
L 7.859375 71.578125 
L 39.59375 71.578125 
Q 49.171875 71.578125 54.140625 69.640625 
Q 59.125 67.71875 62.109375 62.828125 
Q 65.09375 57.953125 65.09375 52.046875 
Q 65.09375 44.4375 60.15625 39.203125 
Q 55.21875 33.984375 44.921875 32.5625 
Q 48.6875 30.765625 50.640625 29 
Q 54.78125 25.203125 58.5 19.484375 
L 70.953125 0 
L 59.03125 0 
L 49.5625 14.890625 
Q 45.40625 21.34375 42.71875 24.75 
Q 40.046875 28.171875 37.921875 29.53125 
Q 35.796875 30.90625 33.59375 31.453125 
Q 31.984375 31.78125 28.328125 31.78125 
L 17.328125 31.78125 
L 17.328125 0 
z
M 17.328125 39.984375 
L 37.703125 39.984375 
Q 44.1875 39.984375 47.84375 41.328125 
Q 51.515625 42.671875 53.421875 45.625 
Q 55.328125 48.578125 55.328125 52.046875 
Q 55.328125 57.125 51.640625 60.390625 
Q 47.953125 63.671875 39.984375 63.671875 
L 17.328125 63.671875 
z
" id="ArialMT-82"/>
       <path d="M 42.09375 16.703125 
L 51.171875 15.578125 
Q 49.03125 7.625 43.21875 3.21875 
Q 37.40625 -1.171875 28.375 -1.171875 
Q 17 -1.171875 10.328125 5.828125 
Q 3.65625 12.84375 3.65625 25.484375 
Q 3.65625 38.578125 10.390625 45.796875 
Q 17.140625 53.03125 27.875 53.03125 
Q 38.28125 53.03125 44.875 45.953125 
Q 51.46875 38.875 51.46875 26.03125 
Q 51.46875 25.25 51.421875 23.6875 
L 12.75 23.6875 
Q 13.234375 15.140625 17.578125 10.59375 
Q 21.921875 6.0625 28.421875 6.0625 
Q 33.25 6.0625 36.671875 8.59375 
Q 40.09375 11.140625 42.09375 16.703125 
z
M 13.234375 30.90625 
L 42.1875 30.90625 
Q 41.609375 37.453125 38.875 40.71875 
Q 34.671875 45.796875 27.984375 45.796875 
Q 21.921875 45.796875 17.796875 41.75 
Q 13.671875 37.703125 13.234375 30.90625 
z
" id="ArialMT-101"/>
       <path d="M 6.59375 -19.875 
L 6.59375 51.859375 
L 14.59375 51.859375 
L 14.59375 45.125 
Q 17.4375 49.078125 21 51.046875 
Q 24.5625 53.03125 29.640625 53.03125 
Q 36.28125 53.03125 41.359375 49.609375 
Q 46.4375 46.1875 49.015625 39.953125 
Q 51.609375 33.734375 51.609375 26.3125 
Q 51.609375 18.359375 48.75 11.984375 
Q 45.90625 5.609375 40.453125 2.21875 
Q 35.015625 -1.171875 29 -1.171875 
Q 24.609375 -1.171875 21.109375 0.6875 
Q 17.625 2.546875 15.375 5.375 
L 15.375 -19.875 
z
M 14.546875 25.640625 
Q 14.546875 15.625 18.59375 10.84375 
Q 22.65625 6.0625 28.421875 6.0625 
Q 34.28125 6.0625 38.453125 11.015625 
Q 42.625 15.96875 42.625 26.375 
Q 42.625 36.28125 38.546875 41.203125 
Q 34.46875 46.140625 28.8125 46.140625 
Q 23.1875 46.140625 18.859375 40.890625 
Q 14.546875 35.640625 14.546875 25.640625 
z
" id="ArialMT-112"/>
       <path d="M 6.5 0 
L 6.5 51.859375 
L 14.40625 51.859375 
L 14.40625 44 
Q 17.4375 49.515625 20 51.265625 
Q 22.5625 53.03125 25.640625 53.03125 
Q 30.078125 53.03125 34.671875 50.203125 
L 31.640625 42.046875 
Q 28.421875 43.953125 25.203125 43.953125 
Q 22.3125 43.953125 20.015625 42.21875 
Q 17.71875 40.484375 16.75 37.40625 
Q 15.28125 32.71875 15.28125 27.15625 
L 15.28125 0 
z
" id="ArialMT-114"/>
       <path d="M 40.234375 0 
L 40.234375 6.546875 
Q 35.296875 -1.171875 25.734375 -1.171875 
Q 19.53125 -1.171875 14.328125 2.25 
Q 9.125 5.671875 6.265625 11.796875 
Q 3.421875 17.921875 3.421875 25.875 
Q 3.421875 33.640625 6 39.96875 
Q 8.59375 46.296875 13.765625 49.65625 
Q 18.953125 53.03125 25.34375 53.03125 
Q 30.03125 53.03125 33.6875 51.046875 
Q 37.359375 49.078125 39.65625 45.90625 
L 39.65625 71.578125 
L 48.390625 71.578125 
L 48.390625 0 
z
M 12.453125 25.875 
Q 12.453125 15.921875 16.640625 10.984375 
Q 20.84375 6.0625 26.5625 6.0625 
Q 32.328125 6.0625 36.34375 10.765625 
Q 40.375 15.484375 40.375 25.140625 
Q 40.375 35.796875 36.265625 40.765625 
Q 32.171875 45.75 26.171875 45.75 
Q 20.3125 45.75 16.375 40.96875 
Q 12.453125 36.1875 12.453125 25.875 
z
" id="ArialMT-100"/>
      </defs>
      <use xlink:href="#ArialMT-67"/>
      <use x="72.216797" xlink:href="#ArialMT-97"/>
      <use x="127.832031" xlink:href="#ArialMT-115"/>
      <use x="177.832031" xlink:href="#ArialMT-111"/>
      <use x="233.447266" xlink:href="#ArialMT-115"/>
      <use x="283.447266" xlink:href="#ArialMT-32"/>
      <use x="311.230469" xlink:href="#ArialMT-82"/>
      <use x="383.447266" xlink:href="#ArialMT-101"/>
      <use x="439.0625" xlink:href="#ArialMT-112"/>
      <use x="494.677734" xlink:href="#ArialMT-111"/>
      <use x="550.292969" xlink:href="#ArialMT-114"/>
      <use x="583.59375" xlink:href="#ArialMT-116"/>
      <use x="611.376953" xlink:href="#ArialMT-97"/>
      <use x="666.992188" xlink:href="#ArialMT-100"/>
      <use x="722.607422" xlink:href="#ArialMT-111"/>
      <use x="778.222656" xlink:href="#ArialMT-115"/>
     </g>
    </g>
    <g id="text_33">
     <!-- 1e7 -->
     <g style="fill:#262626;" transform="translate(48.81 22.44)scale(0.1 -0.1)">
      <use xlink:href="#ArialMT-49"/>
      <use x="55.615234" xlink:href="#ArialMT-101"/>
      <use x="111.230469" xlink:href="#ArialMT-55"/>
     </g>
    </g>
   </g>
   <g id="line2d_61">
    <path clip-path="url(#pbcbd903474)" d="M 111.446383 268.35602 
L 111.446383 25.44 
" style="fill:none;stroke:#6d4848;stroke-dasharray:1.5,2.475;stroke-dashoffset:0;stroke-width:1.5;"/>
   </g>
   <g id="line2d_62">
    <path clip-path="url(#pbcbd903474)" d="M 67.045909 257.314372 
L 143.161008 257.202929 
L 155.846858 256.994043 
L 163.775514 256.695505 
L 170.118439 256.267466 
L 174.875632 255.76309 
L 179.632826 255.018783 
L 182.804289 254.336446 
L 185.975751 253.455569 
L 189.147213 252.321244 
L 192.318676 250.865276 
L 195.490138 249.004192 
L 197.07587 247.8911 
L 198.661601 246.637824 
L 200.247332 245.229191 
L 201.833063 243.649071 
L 203.418794 241.880504 
L 205.004526 239.905897 
L 206.590257 237.707303 
L 208.175988 235.266765 
L 209.761719 232.566794 
L 211.347451 229.590895 
L 212.933182 226.324223 
L 214.518913 222.754305 
L 216.104644 218.871823 
L 217.690375 214.671431 
L 220.861838 205.32004 
L 224.0333 194.76436 
L 227.204763 183.169173 
L 231.961957 164.424767 
L 239.890613 132.558367 
L 243.062075 120.61944 
L 246.233538 109.540521 
L 249.405 99.470074 
L 252.576462 90.473803 
L 255.747925 82.550235 
L 258.919387 75.649853 
L 262.09085 69.693244 
L 265.262312 64.585889 
L 268.433775 60.228883 
L 271.605237 56.525955 
L 274.7767 53.38757 
L 277.948162 50.732946 
L 281.119625 48.4907 
L 284.291087 46.598665 
L 287.462549 45.003252 
L 290.634012 43.658597 
L 293.805474 42.525652 
L 296.976937 41.571282 
L 301.73413 40.41443 
L 306.491324 39.520333 
L 311.248518 38.829356 
L 317.591443 38.14583 
L 325.520099 37.563738 
L 335.034486 37.126724 
L 347.720336 36.804534 
L 365.163379 36.605131 
L 396.878004 36.500993 
L 431.764091 36.481637 
L 431.764091 36.481637 
" style="fill:none;stroke:#0000ff;stroke-linecap:round;"/>
   </g>
   <g id="line2d_63">
    <defs>
     <path d="M 0 1.25 
C 0.331504 1.25 0.649475 1.118292 0.883883 0.883883 
C 1.118292 0.649475 1.25 0.331504 1.25 0 
C 1.25 -0.331504 1.118292 -0.649475 0.883883 -0.883883 
C 0.649475 -1.118292 0.331504 -1.25 0 -1.25 
C -0.331504 -1.25 -0.649475 -1.118292 -0.883883 -0.883883 
C -1.118292 -0.649475 -1.25 -0.331504 -1.25 0 
C -1.25 0.331504 -1.118292 0.649475 -0.883883 0.883883 
C -0.649475 1.118292 -0.331504 1.25 0 1.25 
z
" id="m30436d415b" style="stroke:#000000;"/>
    </defs>
    <g clip-path="url(#pbcbd903474)">
     <use style="stroke:#000000;" x="67.045909" xlink:href="#m30436d415b" y="257.314382"/>
     <use style="stroke:#000000;" x="68.63164" xlink:href="#m30436d415b" y="257.314382"/>
     <use style="stroke:#000000;" x="70.217372" xlink:href="#m30436d415b" y="257.314382"/>
     <use style="stroke:#000000;" x="71.803103" xlink:href="#m30436d415b" y="257.314382"/>
     <use style="stroke:#000000;" x="73.388834" xlink:href="#m30436d415b" y="257.314367"/>
     <use style="stroke:#000000;" x="74.974565" xlink:href="#m30436d415b" y="257.314367"/>
     <use style="stroke:#000000;" x="76.560296" xlink:href="#m30436d415b" y="257.314339"/>
     <use style="stroke:#000000;" x="78.146028" xlink:href="#m30436d415b" y="257.314339"/>
     <use style="stroke:#000000;" x="79.731759" xlink:href="#m30436d415b" y="257.31431"/>
     <use style="stroke:#000000;" x="81.31749" xlink:href="#m30436d415b" y="257.314196"/>
     <use style="stroke:#000000;" x="82.903221" xlink:href="#m30436d415b" y="257.314124"/>
     <use style="stroke:#000000;" x="84.488953" xlink:href="#m30436d415b" y="257.313981"/>
     <use style="stroke:#000000;" x="86.074684" xlink:href="#m30436d415b" y="257.313852"/>
     <use style="stroke:#000000;" x="87.660415" xlink:href="#m30436d415b" y="257.313623"/>
     <use style="stroke:#000000;" x="89.246146" xlink:href="#m30436d415b" y="257.313209"/>
     <use style="stroke:#000000;" x="90.831877" xlink:href="#m30436d415b" y="257.312565"/>
     <use style="stroke:#000000;" x="92.417609" xlink:href="#m30436d415b" y="257.312536"/>
     <use style="stroke:#000000;" x="94.00334" xlink:href="#m30436d415b" y="257.312493"/>
     <use style="stroke:#000000;" x="95.589071" xlink:href="#m30436d415b" y="257.312207"/>
     <use style="stroke:#000000;" x="97.174802" xlink:href="#m30436d415b" y="257.311692"/>
     <use style="stroke:#000000;" x="98.760534" xlink:href="#m30436d415b" y="257.311464"/>
     <use style="stroke:#000000;" x="100.346265" xlink:href="#m30436d415b" y="257.311092"/>
     <use style="stroke:#000000;" x="101.931996" xlink:href="#m30436d415b" y="257.310663"/>
     <use style="stroke:#000000;" x="103.517727" xlink:href="#m30436d415b" y="257.310462"/>
     <use style="stroke:#000000;" x="105.103458" xlink:href="#m30436d415b" y="257.309904"/>
     <use style="stroke:#000000;" x="106.68919" xlink:href="#m30436d415b" y="257.309103"/>
     <use style="stroke:#000000;" x="108.274921" xlink:href="#m30436d415b" y="257.308717"/>
     <use style="stroke:#000000;" x="109.860652" xlink:href="#m30436d415b" y="257.308245"/>
     <use style="stroke:#000000;" x="111.446383" xlink:href="#m30436d415b" y="257.307272"/>
    </g>
   </g>
   <g id="line2d_64">
    <path clip-path="url(#pbcbd903474)" d="M 67.045909 257.314382 
L 149.503933 257.208872 
L 163.775514 256.968646 
L 171.70417 256.646887 
L 178.047095 256.186168 
L 182.804289 255.644206 
L 187.561482 254.84623 
L 190.732945 254.116558 
L 193.904407 253.177177 
L 197.07587 251.971778 
L 200.247332 250.431477 
L 203.418794 248.473621 
L 205.004526 247.308419 
L 206.590257 246.001519 
L 208.175988 244.538866 
L 209.761719 242.905844 
L 211.347451 241.087459 
L 212.933182 239.068611 
L 214.518913 236.834418 
L 216.104644 234.370604 
L 217.690375 231.663958 
L 219.276107 228.702842 
L 220.861838 225.477737 
L 222.447569 221.981808 
L 225.619032 214.166793 
L 228.790494 205.276119 
L 231.961957 195.397945 
L 235.133419 184.691645 
L 239.890613 167.573694 
L 249.405 132.828814 
L 252.576462 122.001287 
L 255.747925 111.854024 
L 258.919387 102.491768 
L 262.09085 93.970667 
L 265.262312 86.305881 
L 268.433775 79.480619 
L 271.605237 73.455078 
L 274.7767 68.174389 
L 277.948162 63.575137 
L 281.119625 59.590386 
L 284.291087 56.153331 
L 287.462549 53.199781 
L 290.634012 50.669728 
L 293.805474 48.508215 
L 296.976937 46.6657 
L 300.148399 45.098072 
L 303.319862 43.766443 
L 306.491324 42.636802 
L 311.248518 41.257521 
L 316.005711 40.18383 
L 320.762905 39.349357 
L 327.10583 38.519766 
L 333.448755 37.928884 
L 341.377411 37.423986 
L 350.891798 37.04388 
L 363.577648 36.763062 
L 382.606423 36.579894 
L 419.078241 36.492249 
L 431.764091 36.485226 
L 431.764091 36.485226 
" style="fill:none;stroke:#008000;stroke-linecap:round;"/>
   </g>
   <g id="patch_3">
    <path d="M 48.81 268.35602 
L 48.81 25.44 
" style="fill:none;"/>
   </g>
   <g id="patch_4">
    <path d="M 450 268.35602 
L 450 25.44 
" style="fill:none;"/>
   </g>
   <g id="patch_5">
    <path d="M 48.81 268.35602 
L 450 268.35602 
" style="fill:none;"/>
   </g>
   <g id="patch_6">
    <path d="M 48.81 25.44 
L 450 25.44 
" style="fill:none;"/>
   </g>
   <g id="text_34">
    <!-- Covid-19 - MG -->
    <g style="fill:#262626;" transform="translate(210.398438 19.44)scale(0.12 -0.12)">
     <defs>
      <path d="M 21 0 
L 1.265625 51.859375 
L 10.546875 51.859375 
L 21.6875 20.796875 
Q 23.484375 15.765625 25 10.359375 
Q 26.171875 14.453125 28.265625 20.21875 
L 39.796875 51.859375 
L 48.828125 51.859375 
L 29.203125 0 
z
" id="ArialMT-118"/>
      <path d="M 6.640625 61.46875 
L 6.640625 71.578125 
L 15.4375 71.578125 
L 15.4375 61.46875 
z
M 6.640625 0 
L 6.640625 51.859375 
L 15.4375 51.859375 
L 15.4375 0 
z
" id="ArialMT-105"/>
      <path d="M 7.421875 0 
L 7.421875 71.578125 
L 21.6875 71.578125 
L 38.625 20.90625 
Q 40.96875 13.8125 42.046875 10.296875 
Q 43.265625 14.203125 45.84375 21.78125 
L 62.984375 71.578125 
L 75.734375 71.578125 
L 75.734375 0 
L 66.609375 0 
L 66.609375 59.90625 
L 45.796875 0 
L 37.25 0 
L 16.546875 60.9375 
L 16.546875 0 
z
" id="ArialMT-77"/>
      <path d="M 41.21875 28.078125 
L 41.21875 36.46875 
L 71.53125 36.53125 
L 71.53125 9.96875 
Q 64.546875 4.390625 57.125 1.578125 
Q 49.703125 -1.21875 41.890625 -1.21875 
Q 31.34375 -1.21875 22.71875 3.296875 
Q 14.109375 7.8125 9.71875 16.359375 
Q 5.328125 24.90625 5.328125 35.453125 
Q 5.328125 45.90625 9.6875 54.953125 
Q 14.0625 64.015625 22.265625 68.40625 
Q 30.46875 72.796875 41.15625 72.796875 
Q 48.921875 72.796875 55.1875 70.28125 
Q 61.46875 67.78125 65.03125 63.28125 
Q 68.609375 58.796875 70.453125 51.5625 
L 61.921875 49.21875 
Q 60.296875 54.6875 57.90625 57.8125 
Q 55.515625 60.9375 51.0625 62.8125 
Q 46.625 64.703125 41.21875 64.703125 
Q 34.71875 64.703125 29.984375 62.71875 
Q 25.25 60.75 22.34375 57.515625 
Q 19.4375 54.296875 17.828125 50.4375 
Q 15.09375 43.796875 15.09375 36.03125 
Q 15.09375 26.46875 18.390625 20.015625 
Q 21.6875 13.578125 27.984375 10.453125 
Q 34.28125 7.328125 41.359375 7.328125 
Q 47.515625 7.328125 53.375 9.6875 
Q 59.234375 12.0625 62.25 14.75 
L 62.25 28.078125 
z
" id="ArialMT-71"/>
     </defs>
     <use xlink:href="#ArialMT-67"/>
     <use x="72.216797" xlink:href="#ArialMT-111"/>
     <use x="127.832031" xlink:href="#ArialMT-118"/>
     <use x="177.832031" xlink:href="#ArialMT-105"/>
     <use x="200.048828" xlink:href="#ArialMT-100"/>
     <use x="255.664062" xlink:href="#ArialMT-45"/>
     <use x="288.964844" xlink:href="#ArialMT-49"/>
     <use x="344.580078" xlink:href="#ArialMT-57"/>
     <use x="400.195312" xlink:href="#ArialMT-32"/>
     <use x="427.978516" xlink:href="#ArialMT-45"/>
     <use x="461.279297" xlink:href="#ArialMT-32"/>
     <use x="489.0625" xlink:href="#ArialMT-77"/>
     <use x="572.363281" xlink:href="#ArialMT-71"/>
    </g>
   </g>
   <g id="legend_1">
    <g id="line2d_65">
     <path d="M 57.81 38.219687 
L 77.81 38.219687 
" style="fill:none;stroke:#6d4848;stroke-dasharray:1.5,2.475;stroke-dashoffset:0;stroke-width:1.5;"/>
    </g>
    <g id="line2d_66"/>
    <g id="text_35">
     <!-- Fim da Srie Temporal -->
     <g style="fill:#262626;" transform="translate(85.81 41.719687)scale(0.1 -0.1)">
      <defs>
       <path d="M 8.203125 0 
L 8.203125 71.578125 
L 56.5 71.578125 
L 56.5 63.140625 
L 17.671875 63.140625 
L 17.671875 40.96875 
L 51.265625 40.96875 
L 51.265625 32.515625 
L 17.671875 32.515625 
L 17.671875 0 
z
" id="ArialMT-70"/>
       <path d="M 6.59375 0 
L 6.59375 51.859375 
L 14.453125 51.859375 
L 14.453125 44.578125 
Q 16.890625 48.390625 20.9375 50.703125 
Q 25 53.03125 30.171875 53.03125 
Q 35.9375 53.03125 39.625 50.640625 
Q 43.3125 48.25 44.828125 43.953125 
Q 50.984375 53.03125 60.84375 53.03125 
Q 68.5625 53.03125 72.703125 48.75 
Q 76.859375 44.484375 76.859375 35.59375 
L 76.859375 0 
L 68.109375 0 
L 68.109375 32.671875 
Q 68.109375 37.9375 67.25 40.25 
Q 66.40625 42.578125 64.15625 43.984375 
Q 61.921875 45.40625 58.890625 45.40625 
Q 53.421875 45.40625 49.796875 41.765625 
Q 46.1875 38.140625 46.1875 30.125 
L 46.1875 0 
L 37.40625 0 
L 37.40625 33.6875 
Q 37.40625 39.546875 35.25 42.46875 
Q 33.109375 45.40625 28.21875 45.40625 
Q 24.515625 45.40625 21.359375 43.453125 
Q 18.21875 41.5 16.796875 37.734375 
Q 15.375 33.984375 15.375 26.90625 
L 15.375 0 
z
" id="ArialMT-109"/>
       <path d="M 4.5 23 
L 13.421875 23.78125 
Q 14.0625 18.40625 16.375 14.96875 
Q 18.703125 11.53125 23.578125 9.40625 
Q 28.46875 7.28125 34.578125 7.28125 
Q 39.984375 7.28125 44.140625 8.890625 
Q 48.296875 10.5 50.3125 13.296875 
Q 52.34375 16.109375 52.34375 19.4375 
Q 52.34375 22.796875 50.390625 25.3125 
Q 48.4375 27.828125 43.953125 29.546875 
Q 41.0625 30.671875 31.203125 33.03125 
Q 21.34375 35.40625 17.390625 37.5 
Q 12.25 40.1875 9.734375 44.15625 
Q 7.234375 48.140625 7.234375 53.078125 
Q 7.234375 58.5 10.296875 63.203125 
Q 13.375 67.921875 19.28125 70.359375 
Q 25.203125 72.796875 32.421875 72.796875 
Q 40.375 72.796875 46.453125 70.234375 
Q 52.546875 67.671875 55.8125 62.6875 
Q 59.078125 57.71875 59.328125 51.421875 
L 50.25 50.734375 
Q 49.515625 57.515625 45.28125 60.984375 
Q 41.0625 64.453125 32.8125 64.453125 
Q 24.21875 64.453125 20.28125 61.296875 
Q 16.359375 58.15625 16.359375 53.71875 
Q 16.359375 49.859375 19.140625 47.359375 
Q 21.875 44.875 33.421875 42.265625 
Q 44.96875 39.65625 49.265625 37.703125 
Q 55.515625 34.8125 58.484375 30.390625 
Q 61.46875 25.984375 61.46875 20.21875 
Q 61.46875 14.5 58.203125 9.4375 
Q 54.9375 4.390625 48.796875 1.578125 
Q 42.671875 -1.21875 35.015625 -1.21875 
Q 25.296875 -1.21875 18.71875 1.609375 
Q 12.15625 4.4375 8.421875 10.125 
Q 4.6875 15.828125 4.5 23 
z
" id="ArialMT-83"/>
       <path d="M 42.09375 16.703125 
L 51.171875 15.578125 
Q 49.03125 7.625 43.21875 3.21875 
Q 37.40625 -1.171875 28.375 -1.171875 
Q 17 -1.171875 10.328125 5.828125 
Q 3.65625 12.84375 3.65625 25.484375 
Q 3.65625 38.578125 10.390625 45.796875 
Q 17.140625 53.03125 27.875 53.03125 
Q 38.28125 53.03125 44.875 45.953125 
Q 51.46875 38.875 51.46875 26.03125 
Q 51.46875 25.25 51.421875 23.6875 
L 12.75 23.6875 
Q 13.234375 15.140625 17.578125 10.59375 
Q 21.921875 6.0625 28.421875 6.0625 
Q 33.25 6.0625 36.671875 8.59375 
Q 40.09375 11.140625 42.09375 16.703125 
z
M 13.234375 30.90625 
L 42.1875 30.90625 
Q 41.609375 37.453125 38.875 40.71875 
Q 34.671875 45.796875 27.984375 45.796875 
Q 21.921875 45.796875 17.796875 41.75 
Q 13.671875 37.703125 13.234375 30.90625 
z
M 22.703125 58.296875 
L 29.203125 71.96875 
L 40.71875 71.96875 
L 29.984375 58.296875 
z
" id="ArialMT-233"/>
       <path d="M 25.921875 0 
L 25.921875 63.140625 
L 2.34375 63.140625 
L 2.34375 71.578125 
L 59.078125 71.578125 
L 59.078125 63.140625 
L 35.40625 63.140625 
L 35.40625 0 
z
" id="ArialMT-84"/>
       <path d="M 6.390625 0 
L 6.390625 71.578125 
L 15.1875 71.578125 
L 15.1875 0 
z
" id="ArialMT-108"/>
      </defs>
      <use xlink:href="#ArialMT-70"/>
      <use x="61.083984" xlink:href="#ArialMT-105"/>
      <use x="83.300781" xlink:href="#ArialMT-109"/>
      <use x="166.601562" xlink:href="#ArialMT-32"/>
      <use x="194.384766" xlink:href="#ArialMT-100"/>
      <use x="250" xlink:href="#ArialMT-97"/>
      <use x="305.615234" xlink:href="#ArialMT-32"/>
      <use x="333.398438" xlink:href="#ArialMT-83"/>
      <use x="400.097656" xlink:href="#ArialMT-233"/>
      <use x="455.712891" xlink:href="#ArialMT-114"/>
      <use x="489.013672" xlink:href="#ArialMT-105"/>
      <use x="511.230469" xlink:href="#ArialMT-101"/>
      <use x="566.845703" xlink:href="#ArialMT-32"/>
      <use x="592.878906" xlink:href="#ArialMT-84"/>
      <use x="642.837891" xlink:href="#ArialMT-101"/>
      <use x="698.453125" xlink:href="#ArialMT-109"/>
      <use x="781.753906" xlink:href="#ArialMT-112"/>
      <use x="837.369141" xlink:href="#ArialMT-111"/>
      <use x="892.984375" xlink:href="#ArialMT-114"/>
      <use x="926.285156" xlink:href="#ArialMT-97"/>
      <use x="981.900391" xlink:href="#ArialMT-108"/>
     </g>
    </g>
    <g id="line2d_67">
     <path d="M 57.81 52.486875 
L 77.81 52.486875 
" style="fill:none;stroke:#0000ff;stroke-linecap:round;"/>
    </g>
    <g id="line2d_68"/>
    <g id="text_36">
     <!-- Infeces Estipuladas -->
     <g style="fill:#262626;" transform="translate(85.81 55.986875)scale(0.1 -0.1)">
      <defs>
       <path d="M 9.328125 0 
L 9.328125 71.578125 
L 18.796875 71.578125 
L 18.796875 0 
z
" id="ArialMT-73"/>
       <path d="M 6.59375 0 
L 6.59375 51.859375 
L 14.5 51.859375 
L 14.5 44.484375 
Q 20.21875 53.03125 31 53.03125 
Q 35.6875 53.03125 39.625 51.34375 
Q 43.5625 49.65625 45.515625 46.921875 
Q 47.46875 44.1875 48.25 40.4375 
Q 48.734375 37.984375 48.734375 31.890625 
L 48.734375 0 
L 39.9375 0 
L 39.9375 31.546875 
Q 39.9375 36.921875 38.90625 39.578125 
Q 37.890625 42.234375 35.28125 43.8125 
Q 32.671875 45.40625 29.15625 45.40625 
Q 23.53125 45.40625 19.453125 41.84375 
Q 15.375 38.28125 15.375 28.328125 
L 15.375 0 
z
" id="ArialMT-110"/>
       <path d="M 8.6875 0 
L 8.6875 45.015625 
L 0.921875 45.015625 
L 0.921875 51.859375 
L 8.6875 51.859375 
L 8.6875 57.375 
Q 8.6875 62.59375 9.625 65.140625 
Q 10.890625 68.5625 14.078125 70.671875 
Q 17.28125 72.796875 23.046875 72.796875 
Q 26.765625 72.796875 31.25 71.921875 
L 29.9375 64.265625 
Q 27.203125 64.75 24.75 64.75 
Q 20.75 64.75 19.09375 63.03125 
Q 17.4375 61.328125 17.4375 56.640625 
L 17.4375 51.859375 
L 27.546875 51.859375 
L 27.546875 45.015625 
L 17.4375 45.015625 
L 17.4375 0 
z
" id="ArialMT-102"/>
       <path d="M 40.4375 19 
L 49.078125 17.875 
Q 47.65625 8.9375 41.8125 3.875 
Q 35.984375 -1.171875 27.484375 -1.171875 
Q 16.84375 -1.171875 10.375 5.78125 
Q 3.90625 12.75 3.90625 25.734375 
Q 3.90625 34.125 6.6875 40.421875 
Q 9.46875 46.734375 15.15625 49.875 
Q 20.84375 53.03125 27.546875 53.03125 
Q 35.984375 53.03125 41.359375 48.75 
Q 46.734375 44.484375 48.25 36.625 
L 39.703125 35.296875 
Q 38.484375 40.53125 35.375 43.15625 
Q 32.28125 45.796875 27.875 45.796875 
Q 21.234375 45.796875 17.078125 41.03125 
Q 12.9375 36.28125 12.9375 25.984375 
Q 12.9375 15.53125 16.9375 10.796875 
Q 20.953125 6.0625 27.390625 6.0625 
Q 32.5625 6.0625 36.03125 9.234375 
Q 39.5 12.40625 40.4375 19 
z
" id="ArialMT-99"/>
       <path d="M 40.4375 19 
L 49.078125 17.875 
Q 47.65625 8.9375 41.8125 3.875 
Q 35.984375 -1.171875 27.484375 -1.171875 
Q 16.84375 -1.171875 10.375 5.78125 
Q 3.90625 12.75 3.90625 25.734375 
Q 3.90625 34.125 6.6875 40.421875 
Q 9.46875 46.734375 15.15625 49.875 
Q 20.84375 53.03125 27.546875 53.03125 
Q 35.984375 53.03125 41.359375 48.75 
Q 46.734375 44.484375 48.25 36.625 
L 39.703125 35.296875 
Q 38.484375 40.53125 35.375 43.15625 
Q 32.28125 45.796875 27.875 45.796875 
Q 21.234375 45.796875 17.078125 41.03125 
Q 12.9375 36.28125 12.9375 25.984375 
Q 12.9375 15.53125 16.9375 10.796875 
Q 20.953125 6.0625 27.390625 6.0625 
Q 32.5625 6.0625 36.03125 9.234375 
Q 39.5 12.40625 40.4375 19 
z
M 20.0625 -6.53125 
L 22.609375 2.109375 
L 29.15625 2.109375 
L 27.546875 -3.125 
Q 31.6875 -3.609375 33.78125 -5.671875 
Q 35.890625 -7.75 35.890625 -10.296875 
Q 35.890625 -13.953125 32.375 -16.765625 
Q 28.859375 -19.578125 21.78125 -19.578125 
Q 17.78125 -19.578125 14.75 -18.984375 
L 15.28125 -13.28125 
Q 18.40625 -13.46875 19.875 -13.46875 
Q 24.46875 -13.46875 26.3125 -12.203125 
Q 27.734375 -11.21875 27.734375 -9.8125 
Q 27.734375 -8.921875 27.171875 -8.234375 
Q 26.609375 -7.5625 25.09375 -7.0625 
Q 23.578125 -6.578125 20.0625 -6.53125 
z
" id="ArialMT-231"/>
       <path d="M 3.328125 25.921875 
Q 3.328125 40.328125 11.328125 47.265625 
Q 18.015625 53.03125 27.640625 53.03125 
Q 38.328125 53.03125 45.109375 46.015625 
Q 51.90625 39.015625 51.90625 26.65625 
Q 51.90625 16.65625 48.90625 10.90625 
Q 45.90625 5.171875 40.15625 2 
Q 34.421875 -1.171875 27.640625 -1.171875 
Q 16.75 -1.171875 10.03125 5.8125 
Q 3.328125 12.796875 3.328125 25.921875 
z
M 12.359375 25.921875 
Q 12.359375 15.96875 16.703125 11.015625 
Q 21.046875 6.0625 27.640625 6.0625 
Q 34.1875 6.0625 38.53125 11.03125 
Q 42.875 16.015625 42.875 26.21875 
Q 42.875 35.84375 38.5 40.796875 
Q 34.125 45.75 27.640625 45.75 
Q 21.046875 45.75 16.703125 40.8125 
Q 12.359375 35.890625 12.359375 25.921875 
z
M 11.28125 59.515625 
Q 11.234375 64.59375 14.0625 67.625 
Q 16.84375 70.65625 21.1875 70.65625 
Q 24.21875 70.65625 29.4375 68.015625 
Q 32.328125 66.546875 34.03125 66.546875 
Q 35.59375 66.546875 36.421875 67.40625 
Q 37.25 68.265625 37.59375 70.796875 
L 43.953125 70.796875 
Q 43.796875 65.234375 41.140625 62.453125 
Q 38.484375 59.671875 34.375 59.671875 
Q 31.296875 59.671875 26.265625 62.40625 
Q 23 64.15625 21.484375 64.15625 
Q 19.828125 64.15625 18.796875 62.984375 
Q 17.71875 61.8125 17.78125 59.515625 
z
" id="ArialMT-245"/>
       <path d="M 7.90625 0 
L 7.90625 71.578125 
L 59.671875 71.578125 
L 59.671875 63.140625 
L 17.390625 63.140625 
L 17.390625 41.21875 
L 56.984375 41.21875 
L 56.984375 32.8125 
L 17.390625 32.8125 
L 17.390625 8.453125 
L 61.328125 8.453125 
L 61.328125 0 
z
" id="ArialMT-69"/>
       <path d="M 40.578125 0 
L 40.578125 7.625 
Q 34.515625 -1.171875 24.125 -1.171875 
Q 19.53125 -1.171875 15.546875 0.578125 
Q 11.578125 2.34375 9.640625 5 
Q 7.71875 7.671875 6.9375 11.53125 
Q 6.390625 14.109375 6.390625 19.734375 
L 6.390625 51.859375 
L 15.1875 51.859375 
L 15.1875 23.09375 
Q 15.1875 16.21875 15.71875 13.8125 
Q 16.546875 10.359375 19.234375 8.375 
Q 21.921875 6.390625 25.875 6.390625 
Q 29.828125 6.390625 33.296875 8.421875 
Q 36.765625 10.453125 38.203125 13.9375 
Q 39.65625 17.4375 39.65625 24.078125 
L 39.65625 51.859375 
L 48.4375 51.859375 
L 48.4375 0 
z
" id="ArialMT-117"/>
      </defs>
      <use xlink:href="#ArialMT-73"/>
      <use x="27.783203" xlink:href="#ArialMT-110"/>
      <use x="83.398438" xlink:href="#ArialMT-102"/>
      <use x="111.181641" xlink:href="#ArialMT-101"/>
      <use x="166.796875" xlink:href="#ArialMT-99"/>
      <use x="216.796875" xlink:href="#ArialMT-231"/>
      <use x="266.796875" xlink:href="#ArialMT-245"/>
      <use x="322.412109" xlink:href="#ArialMT-101"/>
      <use x="378.027344" xlink:href="#ArialMT-115"/>
      <use x="428.027344" xlink:href="#ArialMT-32"/>
      <use x="455.810547" xlink:href="#ArialMT-69"/>
      <use x="522.509766" xlink:href="#ArialMT-115"/>
      <use x="572.509766" xlink:href="#ArialMT-116"/>
      <use x="600.292969" xlink:href="#ArialMT-105"/>
      <use x="622.509766" xlink:href="#ArialMT-112"/>
      <use x="678.125" xlink:href="#ArialMT-117"/>
      <use x="733.740234" xlink:href="#ArialMT-108"/>
      <use x="755.957031" xlink:href="#ArialMT-97"/>
      <use x="811.572266" xlink:href="#ArialMT-100"/>
      <use x="867.1875" xlink:href="#ArialMT-97"/>
      <use x="922.802734" xlink:href="#ArialMT-115"/>
     </g>
    </g>
    <g id="line2d_69"/>
    <g id="line2d_70">
     <g>
      <use style="stroke:#000000;" x="67.81" xlink:href="#m30436d415b" y="66.754062"/>
     </g>
    </g>
    <g id="text_37">
     <!-- Infeces Reportadas -->
     <g style="fill:#262626;" transform="translate(85.81 70.254062)scale(0.1 -0.1)">
      <use xlink:href="#ArialMT-73"/>
      <use x="27.783203" xlink:href="#ArialMT-110"/>
      <use x="83.398438" xlink:href="#ArialMT-102"/>
      <use x="111.181641" xlink:href="#ArialMT-101"/>
      <use x="166.796875" xlink:href="#ArialMT-99"/>
      <use x="216.796875" xlink:href="#ArialMT-231"/>
      <use x="266.796875" xlink:href="#ArialMT-245"/>
      <use x="322.412109" xlink:href="#ArialMT-101"/>
      <use x="378.027344" xlink:href="#ArialMT-115"/>
      <use x="428.027344" xlink:href="#ArialMT-32"/>
      <use x="455.810547" xlink:href="#ArialMT-82"/>
      <use x="528.027344" xlink:href="#ArialMT-101"/>
      <use x="583.642578" xlink:href="#ArialMT-112"/>
      <use x="639.257812" xlink:href="#ArialMT-111"/>
      <use x="694.873047" xlink:href="#ArialMT-114"/>
      <use x="728.173828" xlink:href="#ArialMT-116"/>
      <use x="755.957031" xlink:href="#ArialMT-97"/>
      <use x="811.572266" xlink:href="#ArialMT-100"/>
      <use x="867.1875" xlink:href="#ArialMT-97"/>
      <use x="922.802734" xlink:href="#ArialMT-115"/>
     </g>
    </g>
    <g id="line2d_71">
     <path d="M 57.81 80.899375 
L 77.81 80.899375 
" style="fill:none;stroke:#008000;stroke-linecap:round;"/>
    </g>
    <g id="line2d_72"/>
    <g id="text_38">
     <!-- Recuperados Estipulados -->
     <g style="fill:#262626;" transform="translate(85.81 84.399375)scale(0.1 -0.1)">
      <use xlink:href="#ArialMT-82"/>
      <use x="72.216797" xlink:href="#ArialMT-101"/>
      <use x="127.832031" xlink:href="#ArialMT-99"/>
      <use x="177.832031" xlink:href="#ArialMT-117"/>
      <use x="233.447266" xlink:href="#ArialMT-112"/>
      <use x="289.0625" xlink:href="#ArialMT-101"/>
      <use x="344.677734" xlink:href="#ArialMT-114"/>
      <use x="377.978516" xlink:href="#ArialMT-97"/>
      <use x="433.59375" xlink:href="#ArialMT-100"/>
      <use x="489.208984" xlink:href="#ArialMT-111"/>
      <use x="544.824219" xlink:href="#ArialMT-115"/>
      <use x="594.824219" xlink:href="#ArialMT-32"/>
      <use x="622.607422" xlink:href="#ArialMT-69"/>
      <use x="689.306641" xlink:href="#ArialMT-115"/>
      <use x="739.306641" xlink:href="#ArialMT-116"/>
      <use x="767.089844" xlink:href="#ArialMT-105"/>
      <use x="789.306641" xlink:href="#ArialMT-112"/>
      <use x="844.921875" xlink:href="#ArialMT-117"/>
      <use x="900.537109" xlink:href="#ArialMT-108"/>
      <use x="922.753906" xlink:href="#ArialMT-97"/>
      <use x="978.369141" xlink:href="#ArialMT-100"/>
      <use x="1033.984375" xlink:href="#ArialMT-111"/>
      <use x="1089.599609" xlink:href="#ArialMT-115"/>
     </g>
    </g>
   </g>
  </g>
 </g>
 <defs>
  <clipPath id="pbcbd903474">
   <rect height="242.91602" width="401.19" x="48.81" y="25.44"/>
  </clipPath>
 </defs>
</svg>
